<svg width="18" height="18" viewBox="0 0 18 18" fill="none" xmlns="http://www.w3.org/2000/svg">
<path d="M15 9.375V5.1C15 3.83988 15 3.20982 14.7548 2.72852C14.5391 2.30516 14.1949 1.96095 13.7715 1.74524C13.2901 1.5 12.6601 1.5 11.4 1.5H6.6C5.33988 1.5 4.70982 1.5 4.22852 1.74524C3.80516 1.96095 3.46095 2.30516 3.24524 2.72852C3 3.20982 3 3.83988 3 5.1V12.9C3 14.1602 3 14.7901 3.24524 15.2715C3.46095 15.6949 3.80516 16.0391 4.22852 16.2548C4.70982 16.5 5.33985 16.5 6.5999 16.5H9.375M11.25 14.25L13.5 16.5M13.5 16.5L15.75 14.25M13.5 16.5V12" stroke="#294B75" stroke-width="2" stroke-linecap="round" stroke-linejoin="round"/>
</svg>
