<svg width="80" height="80" viewBox="0 0 80 80" fill="none" xmlns="http://www.w3.org/2000/svg">
<path d="M39.8478 0L45.1464 6.39418L52.1615 1.95029L55.2248 9.66885L63.2698 7.61026L63.798 15.8977L72.0854 16.4259L70.0268 24.4709L77.7454 27.5342L73.3015 34.5493L79.6956 39.8478L73.3015 45.1464L77.7454 52.1615L70.0268 55.2248L72.0854 63.2698L63.798 63.798L63.2698 72.0854L55.2248 70.0268L52.1615 77.7454L45.1464 73.3015L39.8478 79.6956L34.5493 73.3015L27.5342 77.7454L24.4709 70.0268L16.4259 72.0854L15.8977 63.798L7.61026 63.2698L9.66885 55.2248L1.95029 52.1615L6.39418 45.1464L0 39.8478L6.39418 34.5493L1.95029 27.5342L9.66885 24.4709L7.61026 16.4259L15.8977 15.8977L16.4259 7.61026L24.4709 9.66885L27.5342 1.95029L34.5493 6.39418L39.8478 0Z" fill="#FFF155"/>
</svg>
