<svg width="18" height="18" viewBox="0 0 18 18" fill="none" xmlns="http://www.w3.org/2000/svg">
<path d="M3.42578 2.94787C3.42578 2.61205 3.5605 2.28998 3.8003 2.05251C4.0401 1.81505 4.36534 1.68164 4.70447 1.68164H10.9996C11.0472 1.68164 11.0932 1.70034 11.1266 1.73385L15.3731 5.93891C15.4067 5.97235 15.4256 6.01757 15.4258 6.06476V15.4154C15.4258 15.7512 15.2911 16.0733 15.0513 16.3108C14.8115 16.5482 14.4862 16.6816 14.1471 16.6816H4.70447C4.36534 16.6816 4.0401 16.5482 3.8003 16.3108C3.5605 16.0733 3.42578 15.7512 3.42578 15.4154V2.94787Z" stroke="black" stroke-width="1.5"/>
<path d="M11.4258 1.68164V4.29034C11.4258 4.65933 11.5724 5.01322 11.8333 5.27414C12.0942 5.53506 12.4481 5.68164 12.8171 5.68164H15.4258" stroke="black" stroke-width="1.5"/>
<path d="M10.5796 7.68164H1.27194C0.804617 7.68164 0.425781 8.07339 0.425781 8.55664V13.8066C0.425781 14.2899 0.804617 14.6816 1.27194 14.6816H10.5796C11.0469 14.6816 11.4258 14.2899 11.4258 13.8066V8.55664C11.4258 8.07339 11.0469 7.68164 10.5796 7.68164Z" fill="#D92D20"/>
<path d="M2.42578 12.6816V9.68164H3.66245C3.89973 9.68164 4.10225 9.72509 4.27001 9.81199C4.4372 9.89833 4.5646 10.018 4.65222 10.1708C4.74127 10.3235 4.78579 10.4993 4.78579 10.6984C4.78579 10.8975 4.74084 11.0732 4.65092 11.2256C4.56101 11.3782 4.43088 11.4968 4.26053 11.5815C4.09105 11.6665 3.88609 11.709 3.64565 11.709H2.85711V11.2008H3.53835C3.6659 11.2008 3.77104 11.1798 3.85377 11.1377C3.93707 11.0948 3.99927 11.0357 4.04035 10.9603C4.082 10.8844 4.10283 10.7971 4.10283 10.6984C4.10283 10.5986 4.082 10.5117 4.04035 10.4377C3.99919 10.362 3.93381 10.3009 3.85377 10.2632C3.77017 10.2212 3.66389 10.2001 3.53491 10.2001H3.0885V12.6816H2.42578ZM6.32668 12.6816H5.21583V9.68164H6.33615C6.65071 9.68164 6.92203 9.74173 7.15012 9.8619C7.37734 9.98097 7.55228 10.1523 7.67495 10.3759C7.79847 10.5997 7.86023 10.8674 7.86023 11.179C7.86023 11.4913 7.79847 11.7599 7.67495 11.9845C7.55763 12.2041 7.3734 12.3843 7.14667 12.5014C6.91829 12.6216 6.64496 12.6816 6.32668 12.6816ZM5.87854 12.1384H6.2991C6.49501 12.1384 6.65976 12.1051 6.79333 12.0386C6.92835 11.9715 7.02932 11.8675 7.09625 11.7267C7.16462 11.5848 7.19881 11.4023 7.19881 11.179C7.19881 10.957 7.16462 10.7758 7.09625 10.6353C7.03585 10.5018 6.92937 10.3921 6.79463 10.3247C6.66105 10.2587 6.49645 10.2256 6.30082 10.2253H5.87854V12.1384ZM8.35059 12.6816V9.68164H10.4258V10.2047H9.01331V10.9195H10.2879V11.4425H9.01331V12.6816H8.35059Z" fill="white"/>
</svg>
