<svg width="185" height="17" viewBox="0 0 185 17" fill="none" xmlns="http://www.w3.org/2000/svg">
<g clip-path="url(#clip0_8505_78774)">
<path d="M7.26466 7.46465C6.89917 8.37945 6.60548 8.78603 6.33789 9.1799L4.94122 8.39216C5.05217 8.25875 5.20881 8.06817 5.33281 7.87123H3.62287V9.00202C4.09931 9.83423 4.89554 10.6664 5.54166 11.3081L4.66058 12.5342C4.24289 12.0577 3.98836 11.6638 3.62287 11.0095V16.854H2.29147V10.5203C1.92598 11.7337 1.3647 12.9217 0.640264 13.9699L-0.00585938 12.2546C1.09712 10.7935 1.73019 9.13543 2.09567 7.87758H0.281306V6.5308H2.29799V4.06592H3.6294V6.5308H5.33934V7.86488C5.73093 7.26772 6.12252 6.5435 6.63811 4.51062L8.09352 4.71391C8.00868 5.09507 7.89773 5.54612 7.71498 6.11787H8.79186V4.05957H10.1755V6.11787H13.132V7.46465H10.1755V9.37048H13.4061V10.73H10.6193C11.5982 12.477 12.3423 13.2901 13.628 14.3129L12.9035 15.8122C12.388 15.3484 11.0696 14.1922 10.1755 12.2801V16.8477H8.79186V12.3245C7.93689 13.6713 7.0297 14.6687 5.62651 15.7169L4.71932 14.4654C5.95283 13.6586 7.32339 12.5469 8.40027 10.73H5.33281V9.37048H8.79186V7.46465H7.26466Z" fill="black"/>
<path d="M25.824 6.20643H27.3381V7.57228H23.1416C23.2003 8.60778 23.3635 11.403 24.2185 13.4295C24.2903 13.582 24.9168 15.094 25.5042 15.094C25.9806 15.094 26.2025 13.6773 26.2874 13.0484L27.5731 13.7535C27.3773 14.8017 26.9988 16.8028 25.7392 16.8028C24.8972 16.8028 22.0125 15.8626 21.6797 7.56593H14.2852V6.20008H21.634C21.634 5.9015 21.5948 4.38954 21.5753 4.03379H23.0568C23.0568 4.87871 23.0437 5.65374 23.0698 6.20008H25.6021C24.9299 5.71092 24.3555 5.38057 23.5136 4.974L24.3555 3.91309C25.0669 4.23708 25.935 4.73259 26.6072 5.20905L25.8109 6.20643H25.824ZM14.2852 14.9415C15.0422 14.8462 16.9284 14.6111 17.2547 14.573V10.6216H14.5266V9.27482H21.275V10.6216H18.6971V14.3951C20.3091 14.1664 21.1641 14.0013 21.7058 13.8933V15.1765C19.4215 15.6657 16.1778 16.1295 14.5266 16.3327L14.2852 14.9415Z" fill="black"/>
<path d="M31.151 8.29645C30.0871 8.95079 29.441 9.22396 28.8406 9.47171L28.0117 8.16305C30.2634 7.40071 32.8805 5.72358 34.0748 3.96387H35.6869C36.7115 5.52029 38.9632 7.05766 41.7369 8.10587L40.8428 9.46536C40.2554 9.17949 39.4461 8.78562 38.5912 8.25198V9.02702H31.1575V8.2901L31.151 8.29645ZM39.4918 16.9362C39.3221 16.6376 39.2373 16.4852 38.9175 16.0214C36.9987 16.212 33.866 16.428 28.9776 16.5233L28.7688 15.1066C29.0625 15.1066 30.3352 15.1066 30.7724 15.0939C31.1379 14.4269 31.8362 12.9403 32.1299 11.9175H28.5338V10.5962H41.1496V11.9175H33.8595C33.383 13.0229 32.8348 14.1791 32.3584 15.0494C34.9755 14.9923 35.2692 14.9796 38.069 14.8462C37.3838 13.9631 37.0313 13.4994 36.4178 12.8959L37.6057 12.1907C38.0364 12.5973 39.6354 14.141 40.8559 16.1167L39.4983 16.9362H39.4918ZM37.8015 7.73741C36.2873 6.70191 35.2235 5.51394 34.8906 5.14548C34.3294 5.79982 33.5723 6.63203 32.0059 7.73741H37.8015Z" fill="black"/>
<path d="M45.8426 16.835H44.4002V11.5749C43.5583 12.3373 43.1406 12.585 42.7033 12.8455L42.0898 11.4542C43.8846 10.4314 45.2552 8.95759 45.8948 7.47739H42.2856V6.14331H44.4002V4.01514H45.8426V6.14331H47.4807V7.47739C47.2458 7.99832 46.9195 8.67807 46.0645 9.78345C46.7759 10.5712 47.1152 10.8062 48.0224 11.4606L47.3502 12.7565C46.691 12.2356 46.3125 11.8735 45.8361 11.3272V16.8477L45.8426 16.835ZM50.62 4.01514H52.0884V7.87127H55.0841V9.3324H52.0884V14.9355H55.4039V16.3967H47.0891V14.9355H50.62V9.3324H47.6961V7.87127H50.62V4.01514Z" fill="black"/>
<path d="M66.4128 11.8355C66.4128 15.5837 64.9444 16.994 61.9357 16.994C61.2569 16.994 60.552 16.9304 60.043 16.8161V14.7896C60.3628 14.8531 61.1003 14.8976 61.642 14.8976C63.6195 14.8976 63.8936 13.4936 63.8936 11.9372V0.203613H66.4194V11.8355H66.4128Z" fill="black"/>
<path d="M74.1293 2.28097H68.6992V0.203613H82.1046V2.28097H76.6681V16.7589H74.1293V2.28097Z" fill="black"/>
<path d="M84.5039 0.203613H91.2001C94.8941 0.203613 96.5453 2.09038 96.5453 4.35832C96.5453 6.2705 95.4293 7.51565 94.1566 7.96034C95.3379 8.33515 97.0935 9.50406 97.0935 11.8863C97.0935 14.9547 94.6787 16.7526 91.3763 16.7526H84.5039V0.203613ZM90.7693 7.02013C93.0993 7.02013 94.013 6.11169 94.013 4.58067C94.013 3.164 92.9622 2.19838 91.0696 2.19838H86.9775V7.02013H90.7693ZM86.9775 14.7642H91.0108C93.1189 14.7642 94.496 13.8176 94.496 11.8609C94.496 10.152 93.3669 9.00855 90.6584 9.00855H86.9775V14.7578V14.7642Z" fill="black"/>
<path d="M101.702 6.23202C100.612 5.03134 99.816 4.35795 99.457 4.05302L100.286 2.58553C100.527 2.76341 100.58 2.81423 100.801 3.01116C101.461 1.96296 101.807 1.16886 102.198 0.146068L103.804 0.641583C103.197 2.03919 102.198 3.68456 101.904 4.12925C102.335 4.60571 102.492 4.76453 102.596 4.89158C103.601 3.36692 104.013 2.57282 104.339 1.93755L105.84 2.6427C104.822 4.44689 102.903 7.17223 102.524 7.66774C103.112 7.64868 103.386 7.62963 104.339 7.59786C104.182 7.15317 104.097 6.92447 103.928 6.53695L105.226 6.04143C105.696 6.96259 106.212 8.34114 106.382 9.10347L104.998 9.64981C104.913 9.31311 104.881 9.22417 104.828 9.04629C104.515 9.08441 103.915 9.11617 103.686 9.11617V16.7458H102.042V9.23688C100.436 9.34487 100.26 9.34487 99.705 9.37664L99.6202 7.74398C100.123 7.74398 100.208 7.74398 100.677 7.71221C100.939 7.35646 101.422 6.6513 101.696 6.22567L101.702 6.23202ZM101.493 10.5328C101.493 11.0982 101.422 13.7728 100.906 15.4753L99.457 15.0687C99.8747 13.4551 100.012 11.9177 100.025 10.2914L101.493 10.5392V10.5328ZM105.54 10.374C105.749 11.4032 105.833 12.4133 105.833 13.4932L104.417 13.7219C104.437 12.642 104.3 11.1745 104.208 10.5519L105.54 10.374ZM107.889 11.473C107.837 12.1655 107.72 14.2873 106.767 16.0407L105.174 15.2085C105.52 14.6621 106.127 13.7219 106.506 11.1364L107.889 11.473ZM110.174 0.762286C109.377 2.37589 107.961 3.98314 106.649 5.13299L105.527 3.80526C106.081 3.37963 107.498 2.26789 108.588 0.177831L110.18 0.762286H110.174ZM108.79 8.65877C108.392 8.67783 107.289 8.72865 106.904 8.72865V7.15317C107.093 7.15317 107.269 7.15317 107.7 7.13411C108.457 5.59674 109.031 3.91326 109.358 2.95399L111.12 3.34151C110.513 4.98688 110.271 5.52051 109.443 7.05788C110.134 7.03882 112.021 6.93717 112.81 6.89906C112.053 5.67933 111.897 5.48239 111.498 5.00593L112.915 4.14196C114.213 5.52051 115.16 7.20399 115.715 8.3729L114.142 9.31311C113.952 8.86842 113.848 8.67783 113.678 8.36019C111.812 8.53807 111.57 8.55713 109.358 8.63972C110.794 9.22417 111.498 9.68792 112.177 10.1771L111.316 11.5938C110.519 10.9585 109.227 10.266 108.085 9.87851L108.796 8.65877H108.79ZM110.05 11.67V14.5541C110.05 14.9099 110.134 14.9607 110.415 14.9607H111.296C111.642 14.9607 111.799 14.9607 111.903 13.0867L113.613 13.4424C113.287 15.92 113.163 16.5934 112.177 16.5934H109.704C109.168 16.5934 108.405 16.4727 108.405 15.6913V11.67H110.05ZM115.238 4.97417C113.75 3.87514 112.608 2.40765 111.779 0.762286L113.3 0.0571289C114.442 2.19801 115.584 3.04928 116.184 3.50668L115.232 4.97417H115.238ZM114.559 10.5519C115.166 11.7017 115.839 13.741 116.1 15.1005L114.455 15.704C114.005 13.5949 113.626 12.426 113.058 11.1364L114.559 10.5519Z" fill="black"/>
<path d="M132.292 6.83601C131.431 6.42943 130.804 6.11179 129.681 5.41934V6.81695H120.623V5.38122C119.585 6.0165 118.945 6.3532 117.875 6.81695L116.824 4.97465C119.539 4.0535 122.404 2.23025 124.238 0.0703125H125.935C127.475 1.78556 129.185 3.2594 133.369 4.97465L132.299 6.83601H132.292ZM131.496 8.60843V16.327H118.619V8.60843H131.496ZM129.668 10.2729H120.44V14.6626H129.668V10.2729ZM129.231 5.13347C126.64 3.39916 125.759 2.43989 125.048 1.62674C123.892 3.04341 122.561 4.12338 121.021 5.13347H129.231Z" fill="black"/>
<path d="M140.123 5.86339V15.9579H135.371V9.68776C135.11 10.0562 135.006 10.1833 134.68 10.539L133.936 8.44897C135.319 6.62572 135.835 5.13918 136.011 2.59172H134.229V0.870117H140.488V2.58536H137.688C137.603 3.91309 137.466 4.67542 137.12 5.86339H140.129H140.123ZM138.582 7.4897H136.957V14.3062H138.582V7.4897ZM142.524 2.58536H141.173V0.870117H150.245V2.58536H148.588V6.74643H150.506V8.48073H148.588V16.6949H146.806V8.48073H144.28V10.0181C144.28 12.4766 143.849 15.0495 142.068 16.6949L140.475 15.4052C141.03 14.8589 142.511 13.3851 142.511 9.87834V8.48073H140.854V6.74643H142.511V2.58536H142.524ZM144.287 6.74643H146.812V2.58536H144.287V6.74643Z" fill="black"/>
<path d="M159.515 6.7974C159.482 7.33103 159.482 7.69949 159.358 8.67147H164.214V14.2492C164.214 14.624 164.214 14.7129 164.56 14.7129H165.65C165.963 14.7129 166.061 14.5541 166.08 12.1973L167.758 12.5848C167.673 15.6087 167.634 16.4282 166.407 16.4282H163.777C162.465 16.4282 162.465 15.4753 162.465 14.8527V10.4248H159.025C158.608 12.1274 157.576 15.0623 152.323 16.7649L151.422 14.9416C152.388 14.7447 154.861 14.2492 156.467 12.1973C156.898 11.6319 157.126 10.9076 157.244 10.4248H152.316V8.67147H157.589C157.674 7.83925 157.694 7.3628 157.713 6.7974H159.508H159.515ZM166.583 4.99322C166.446 6.448 166.185 7.15316 165.147 7.15316H161.877C160.924 7.15316 160.461 6.9054 160.461 5.98425V3.13186H158.249C157.798 4.9551 156.78 6.81646 152.943 7.90914L152.323 6.15577C154.946 5.67932 155.899 4.86616 156.591 3.1255H153.791V4.98686H152.009V1.43567H158.732V0.0698242H160.461V1.43567H167.255V4.99322H166.583ZM165.558 3.13186H162.001V5.15204C162.001 5.36168 162.001 5.55861 162.399 5.55861H164.455C164.853 5.55861 164.886 5.41885 165.01 4.18006L165.565 4.30077V3.13186H165.558Z" fill="black"/>
<path d="M169.762 4.03401H176.138V10.7616H171.492C171.387 13.8046 171.08 15.2212 170.095 16.676L168.574 15.3864C169.005 14.6431 169.769 13.3345 169.769 10.2534V4.03401H169.762ZM176.778 2.4077H168.933V0.673393H176.778V2.4077ZM171.492 5.75561V8.97646H174.415V5.75561H171.492ZM184.936 1.68348C183.657 2.22982 182.117 2.67451 179.199 2.96039V5.50785H185.008V7.28027H183.122V16.6824H181.34V7.28027H179.199C179.219 8.91293 179.18 13.4043 176.882 16.6125L175.277 15.3356C177.418 12.9469 177.418 9.08445 177.418 8.3793V1.36584C179.682 1.33408 181.719 0.889387 183.814 0L184.936 1.68348Z" fill="black"/>
</g>
<defs>
<clipPath id="clip0_8505_78774">
<rect width="185" height="17" fill="white"/>
</clipPath>
</defs>
</svg>
