<svg width="28" height="28" viewBox="0 0 28 28" fill="none" xmlns="http://www.w3.org/2000/svg">
<rect width="28" height="28" rx="14" fill="#FC948D"/>
<path d="M17.75 11.4444V9.88889C17.75 7.74112 16.071 6 14 6C11.9289 6 10.25 7.74112 10.25 9.88889V11.4444M14 14.9444V16.5M11.6 20H16.4C17.6601 20 18.2901 20 18.7715 19.7457C19.1949 19.522 19.5391 19.1651 19.7548 18.726C20 18.2268 20 17.5735 20 16.2667V15.1778C20 13.871 20 13.2176 19.7548 12.7184C19.5391 12.2794 19.1949 11.9225 18.7715 11.6988C18.2901 11.4444 17.6601 11.4444 16.4 11.4444H11.6C10.3399 11.4444 9.70982 11.4444 9.22852 11.6988C8.80516 11.9225 8.46095 12.2794 8.24524 12.7184C8 13.2176 8 13.871 8 15.1778V16.2667C8 17.5735 8 18.2268 8.24524 18.726C8.46095 19.1651 8.80516 19.522 9.22852 19.7457C9.70982 20 10.3399 20 11.6 20Z" stroke="white" stroke-width="2" stroke-linecap="round" stroke-linejoin="round"/>
</svg>
