<svg width="20" height="24" viewBox="0 0 20 24" fill="none" xmlns="http://www.w3.org/2000/svg">
<path d="M1.66602 11.9998H18.3327M1.66602 11.9998C1.66602 16.6022 5.39697 20.3332 9.99935 20.3332M1.66602 11.9998C1.66602 7.39746 5.39697 3.6665 9.99935 3.6665M18.3327 11.9998C18.3327 16.6022 14.6017 20.3332 9.99935 20.3332M18.3327 11.9998C18.3327 7.39746 14.6017 3.6665 9.99935 3.6665M9.99935 20.3332C12.0838 18.0512 13.2683 15.0898 13.3327 11.9998C13.2683 8.90986 12.0838 5.94846 9.99935 3.6665M9.99935 20.3332C7.91495 18.0512 6.73039 15.0898 6.66601 11.9998C6.73039 8.90986 7.91495 5.94846 9.99935 3.6665" stroke="black" stroke-width="2" stroke-linecap="round" stroke-linejoin="round"/>
</svg>
