<svg width="18" height="18" viewBox="0 0 18 18" fill="none" xmlns="http://www.w3.org/2000/svg">
<path d="M3 3.26623C3 2.93041 3.13472 2.60834 3.37452 2.37087C3.61432 2.13341 3.93956 2 4.27869 2H10.5738C10.6214 2 10.6674 2.0187 10.7009 2.05221L14.9473 6.25727C14.9809 6.29071 14.9998 6.33593 15 6.38312V15.7338C15 16.0696 14.8653 16.3917 14.6255 16.6291C14.3857 16.8666 14.0604 17 13.7213 17H4.27869C3.93956 17 3.61432 16.8666 3.37452 16.6291C3.13472 16.3917 3 16.0696 3 15.7338V3.26623Z" stroke="black" stroke-width="1.5"/>
<path d="M10.8867 1.94385V4.55254C10.8867 4.92154 11.0333 5.27542 11.2942 5.53634C11.5551 5.79726 11.909 5.94385 12.278 5.94385H14.8867" stroke="black" stroke-width="1.5"/>
<path d="M10.1724 7.94385H1.601C1.20652 7.94385 0.886719 8.27963 0.886719 8.69385V13.1938C0.886719 13.6081 1.20652 13.9438 1.601 13.9438H10.1724C10.5669 13.9438 10.8867 13.6081 10.8867 13.1938V8.69385C10.8867 8.27963 10.5669 7.94385 10.1724 7.94385Z" fill="#079455"/>
<path d="M4.40342 11.0055H3.8051C3.79602 10.93 3.77332 10.857 3.7382 10.7904C3.70525 10.7281 3.66127 10.673 3.60861 10.6279C3.55404 10.5825 3.49202 10.5478 3.42558 10.5255C3.35375 10.5009 3.27855 10.4887 3.20294 10.4894C3.05836 10.4894 2.93236 10.5271 2.82495 10.6026C2.71729 10.6764 2.63397 10.7848 2.57501 10.9276C2.5158 11.0689 2.48619 11.2408 2.48619 11.4433C2.48619 11.6512 2.51567 11.8259 2.57463 11.9674C2.63513 12.1092 2.71895 12.2163 2.82611 12.2885C2.93377 12.3607 3.0581 12.3969 3.1991 12.3969C3.27831 12.3969 3.35149 12.3859 3.41866 12.3639C3.4871 12.342 3.54773 12.3102 3.60054 12.2684C3.65295 12.2255 3.69728 12.1729 3.73128 12.1131C3.76716 12.0521 3.79177 11.9827 3.8051 11.9048L4.40342 11.9076C4.38804 12.0417 4.34933 12.1709 4.2873 12.2953C4.22491 12.4208 4.14112 12.5334 4.04005 12.6276C3.93207 12.728 3.80698 12.8062 3.67129 12.8584C3.52927 12.9146 3.36867 12.9426 3.18948 12.9426C2.94006 12.9426 2.71703 12.8838 2.52041 12.7661C2.32191 12.6452 2.16072 12.4675 2.05591 12.254C1.94312 12.0309 1.88672 11.7606 1.88672 11.4433C1.88672 11.1249 1.94401 10.8542 2.0586 10.6311C2.17344 10.4077 2.32918 10.2375 2.5258 10.1206C2.72806 10.0012 2.95715 9.94027 3.18948 9.94401C3.35149 9.94401 3.50172 9.96769 3.64014 10.015C3.77934 10.0629 3.90264 10.1324 4.01005 10.2233C4.11772 10.3135 4.20514 10.4241 4.2723 10.5552C4.34023 10.6863 4.3842 10.8364 4.40342 11.0055ZM6.34411 10.8233C6.34086 10.7706 6.32657 10.7193 6.30225 10.6729C6.27794 10.6266 6.24418 10.5864 6.20337 10.5552C6.12032 10.4915 6.00791 10.4597 5.86615 10.4597C5.7695 10.4597 5.68798 10.474 5.62159 10.5026C5.56129 10.5256 5.50831 10.5656 5.46855 10.6182C5.43437 10.667 5.41617 10.726 5.41664 10.7864C5.41393 10.8341 5.42491 10.8816 5.44817 10.9228C5.47322 10.9634 5.50625 10.9981 5.54507 11.0244C5.58609 11.0519 5.63351 11.076 5.68734 11.0966C5.74118 11.1167 5.79847 11.1339 5.85923 11.1484L6.11032 11.211C6.2326 11.2393 6.34462 11.2773 6.44639 11.3249C6.54842 11.3723 6.63673 11.4308 6.71133 11.5003C6.78593 11.5696 6.8436 11.6512 6.88436 11.7451C6.9264 11.8396 6.94794 11.9475 6.94896 12.069C6.94794 12.2474 6.90423 12.4022 6.81784 12.5333C6.73196 12.6636 6.60815 12.7649 6.44639 12.8371C6.28489 12.9083 6.09058 12.9438 5.86345 12.9438C5.63736 12.9438 5.44074 12.9077 5.2736 12.8355C5.11613 12.7708 4.9803 12.6593 4.88292 12.5148C4.79012 12.3722 4.74142 12.1961 4.7368 11.9863H5.30897C5.31513 12.0842 5.34204 12.1658 5.38972 12.2311C5.43792 12.2959 5.502 12.3448 5.58198 12.378C5.66299 12.4101 5.75451 12.4261 5.85653 12.4261C5.95651 12.4261 6.04341 12.411 6.11724 12.3808C6.18491 12.3556 6.24482 12.3118 6.29066 12.254C6.33123 12.2011 6.35297 12.1351 6.35218 12.0674C6.35218 12.0021 6.33347 11.947 6.29604 11.902C6.25156 11.8515 6.19639 11.8125 6.13493 11.7881C6.05162 11.7517 5.96541 11.7231 5.8773 11.7026L5.57237 11.6227C5.33653 11.5628 5.15042 11.4691 5.01404 11.3418C4.87741 11.2147 4.80948 11.0432 4.81025 10.8273C4.80948 10.6507 4.85459 10.4964 4.9456 10.3642C5.03788 10.2323 5.16401 10.1293 5.32397 10.0552C5.48419 9.98107 5.66619 9.94401 5.86999 9.94401C6.07763 9.94401 6.25887 9.98107 6.41371 10.0552C6.56957 10.129 6.69056 10.232 6.7767 10.3642C6.86334 10.4964 6.90795 10.6494 6.91051 10.8233H6.34411ZM7.85144 9.98374L8.5282 12.2014H8.55396L9.23149 9.98374H9.88672L8.92272 12.9025H8.16059L7.19544 9.98374H7.85144Z" fill="white"/>
</svg>
